<?xml version="1.0" encoding="utf-8"?>
<!-- Generator: Adobe Illustrator 21.1.0, SVG Export Plug-In . SVG Version: 6.00 Build 0)  -->
<svg version="1.1" id="Layer_1" xmlns="http://www.w3.org/2000/svg" xmlns:xlink="http://www.w3.org/1999/xlink" x="0px" y="0px"
	 viewBox="0 0 1028 140" style="enable-background:new 0 0 1028 140;" xml:space="preserve">
<style type="text/css">
	.st0{fill:none;stroke:#DC6C44;stroke-width:8;stroke-miterlimit:10;}
	.st1{fill:#203747;}
</style>
<path class="st0" d="M138.8,119.4c-6,2.7-12.5,5.1-19.5,7.2c-7.1,2-13.9,3-20.5,3c-8.5,0-16.3-1.2-23.4-3.5
	c-7.1-2.3-13.1-5.9-18.1-10.6c-5-4.7-8.9-10.7-11.7-17.8c-2.7-7.1-4.1-15.4-4.1-25c0-17.5,5.1-31.2,15.3-41.3s24.2-15.1,42-15.1
	c6.2,0,12.6,0.7,19,2.2c6.5,1.5,13.5,4,20.9,7.6v17.2h-1.3c-1.5-1.2-3.7-2.7-6.6-4.6c-2.9-1.9-5.7-3.5-8.5-4.8
	c-3.4-1.5-7.2-2.8-11.5-3.8c-4.3-1-9.1-1.5-14.6-1.5c-12.2,0-21.9,3.9-29,11.8S56.6,58.9,56.6,72.3c0,14.1,3.7,25.1,11.1,33
	c7.4,7.8,17.6,11.8,30.4,11.8c4.7,0,9.4-0.5,14-1.4c4.7-0.9,8.8-2.1,12.3-3.6V85.3H95.2V72.5h43.6V119.4z"/>
<path class="st0" d="M236.2,127.5h-72V18.2h72v12.9h-57.4v29.9h57.4V74h-57.4v40.6h57.4V127.5z"/>
<path class="st0" d="M331.2,127.5h-72V18.2h72v12.9h-57.4v29.9h57.4V74h-57.4v40.6h57.4V127.5z"/>
<path class="st1" d="M436.6,93.9c0,5.4-1,10.2-3.1,14.4s-4.8,7.6-8.3,10.3c-4.1,3.2-8.6,5.5-13.5,6.9c-4.9,1.4-11.2,2.1-18.7,2.1
	h-38.7V18.2h32.3c8,0,13.9,0.3,17.9,0.9s7.7,1.8,11.4,3.7c4,2.1,6.9,4.8,8.7,8.1c1.8,3.3,2.7,7.3,2.7,11.8c0,5.2-1.3,9.6-4,13.2
	c-2.6,3.6-6.2,6.6-10.6,8.8v0.6c7.4,1.5,13.2,4.8,17.5,9.7C434.4,80,436.6,86.3,436.6,93.9z M412.1,44.6c0-2.6-0.4-4.9-1.3-6.7
	c-0.9-1.8-2.3-3.3-4.3-4.4c-2.3-1.3-5.1-2.1-8.4-2.5c-3.3-0.3-7.3-0.5-12.2-0.5h-17.3v31.5h18.8c4.5,0,8.2-0.2,10.9-0.7
	c2.7-0.5,5.2-1.4,7.5-2.9c2.3-1.5,3.9-3.4,4.9-5.7C411.7,50.6,412.1,47.8,412.1,44.6z M421.4,94.4c0-4.4-0.7-7.9-2-10.5
	c-1.3-2.6-3.7-4.8-7.2-6.6c-2.3-1.2-5.2-2-8.5-2.4c-3.3-0.4-7.4-0.6-12.2-0.6h-22.8v40.6h19.2c6.4,0,11.6-0.3,15.6-1
	c4.1-0.7,7.4-1.9,10-3.6c2.7-1.9,4.7-4.1,6-6.5C420.8,101.5,421.4,98.3,421.4,94.4z"/>
<path class="st1" d="M543.3,127.5h-15.5L517.1,97h-47.2l-10.7,30.4h-14.7l39.8-109.2h19.4L543.3,127.5z M512.6,84.5l-19.1-53.6
	l-19.2,53.6H512.6z"/>
<path class="st1" d="M650.2,127.5h-18.9L594.8,84h-20.5v43.4h-14.5V18.2h30.6c6.6,0,12.1,0.4,16.5,1.3c4.4,0.9,8.4,2.4,11.9,4.6
	c4,2.5,7.1,5.6,9.3,9.4c2.2,3.8,3.3,8.6,3.3,14.4c0,7.9-2,14.5-5.9,19.8c-4,5.3-9.4,9.3-16.4,12L650.2,127.5z M616.3,49
	c0-3.1-0.5-5.9-1.7-8.3c-1.1-2.4-2.9-4.5-5.5-6.1c-2.1-1.4-4.6-2.4-7.5-3c-2.9-0.6-6.3-0.8-10.2-0.8h-17.1v41.2H589
	c4.6,0,8.6-0.4,12-1.2c3.4-0.8,6.3-2.3,8.7-4.5c2.2-2.1,3.8-4.4,4.9-7.1C615.7,56.5,616.3,53.1,616.3,49z"/>
<path class="st1" d="M754.7,127.5h-18.9L699.3,84h-20.5v43.4h-14.5V18.2h30.6c6.6,0,12.1,0.4,16.5,1.3c4.4,0.9,8.4,2.4,11.9,4.6
	c4,2.5,7.1,5.6,9.3,9.4c2.2,3.8,3.3,8.6,3.3,14.4c0,7.9-2,14.5-5.9,19.8c-4,5.3-9.4,9.3-16.4,12L754.7,127.5z M720.7,49
	c0-3.1-0.5-5.9-1.7-8.3c-1.1-2.4-2.9-4.5-5.5-6.1c-2.1-1.4-4.6-2.4-7.5-3c-2.9-0.6-6.3-0.8-10.2-0.8h-17.1v41.2h14.7
	c4.6,0,8.6-0.4,12-1.2c3.4-0.8,6.3-2.3,8.7-4.5c2.2-2.1,3.8-4.4,4.9-7.1C720.2,56.5,720.7,53.1,720.7,49z"/>
<path class="st1" d="M850.2,30.8c4.4,4.9,7.9,10.9,10.2,18c2.4,7.1,3.6,15.1,3.6,24.1s-1.2,17.1-3.6,24.2c-2.4,7.1-5.8,13-10.2,17.8
	c-4.5,4.9-9.8,8.7-16,11.1c-6.1,2.5-13.1,3.7-21,3.7c-7.7,0-14.7-1.3-20.9-3.8c-6.3-2.5-11.6-6.2-16-11.1
	c-4.4-4.8-7.8-10.8-10.2-17.8c-2.4-7-3.6-15.1-3.6-24.1c0-8.9,1.2-16.9,3.5-23.9c2.3-7.1,5.8-13.1,10.3-18.2c4.3-4.8,9.6-8.5,16-11
	c6.4-2.5,13.3-3.8,20.9-3.8c7.8,0,14.9,1.3,21.1,3.8C840.5,22.4,845.8,26,850.2,30.8z M848.8,72.9c0-14.2-3.2-25.1-9.5-32.8
	c-6.4-7.7-15-11.6-26-11.6c-11.1,0-19.8,3.9-26.1,11.6c-6.3,7.7-9.5,18.6-9.5,32.8c0,14.3,3.2,25.3,9.7,32.9
	c6.5,7.6,15.1,11.4,26,11.4s19.5-3.8,25.9-11.4C845.6,98.2,848.8,87.2,848.8,72.9z"/>
<path class="st1" d="M970.3,127.5h-18l-51.8-97.7v97.7H887V18.2h22.5l47.2,89.2V18.2h13.6V127.5z"/>
</svg>
